<svg xmlns="http://www.w3.org/2000/svg" viewBox="0 0 128 128" fill="none">
  <!-- Background circle -->
  <circle cx="64" cy="64" r="64" fill="url(#bg)"/>

  <!-- ApexChain "A" monogram with chain-link motif -->
  <!-- Left chain link -->
  <path d="M38 52C38 44.268 44.268 38 52 38L58 38V46L52 46C48.686 46 46 48.686 46 52L46 76C46 79.314 48.686 82 52 82L58 82V90L52 90C44.268 90 38 83.732 38 76L38 52Z" fill="white"/>
  <!-- Right chain link -->
  <path d="M90 52C90 44.268 83.732 38 76 38L70 38V46L76 46C79.314 46 82 48.686 82 52L82 76C82 79.314 79.314 82 76 82L70 82V90L76 90C83.732 90 90 83.732 90 76L90 52Z" fill="white" opacity="0.85"/>
  <!-- Center connector bar -->
  <rect x="60" y="38" width="8" height="14" rx="2" fill="white" opacity="0.6"/>
  <rect x="60" y="76" width="8" height="14" rx="2" fill="white" opacity="0.6"/>
  <!-- Center A letterform -->
  <path d="M52 72L58 56H60L66 72H62L60.5 68H57.5L56 72H52ZM58 65H60L59 62H59L58 65Z" fill="white"/>

  <defs>
    <linearGradient id="bg" x1="0" y1="0" x2="128" y2="128" gradientUnits="userSpaceOnUse">
      <stop stop-color="#4F46E5"/>
      <stop offset="1" stop-color="#7C3AED"/>
    </linearGradient>
  </defs>
</svg>
